<svg width="992" height="270" viewBox="0 0 992 270" fill="none" xmlns="http://www.w3.org/2000/svg">
<path d="M274 178C274 219.421 240.421 253 199 253C157.579 253 124 219.421 124 178C124 136.579 157.579 103 199 103C240.421 103 274 136.579 274 178Z" stroke="url(#paint0_linear_135_268)" stroke-width="20"/>
<path fill-rule="evenodd" clip-rule="evenodd" d="M199 138.481C203.846 135.681 209.367 134.119 215.064 134.007C223.657 133.836 231.983 136.976 238.298 142.769C244.613 148.561 248.427 156.557 248.94 165.08C249.434 173.275 246.841 181.347 241.686 187.733L241.727 187.769C239.702 189.991 236.262 194.182 232.17 199.168C220.1 213.875 202.352 235.5 198.455 233.918C193.236 231.799 159.876 192.134 156.343 187.769C152.81 183.405 150.452 178.22 149.489 172.702C148.526 167.184 148.99 161.513 150.838 156.222C152.685 150.931 155.856 146.193 160.052 142.452C164.247 138.712 169.331 136.092 174.825 134.839C180.32 133.585 186.044 133.739 191.462 135.286C194.108 136.041 196.639 137.117 199 138.481Z" fill="url(#paint1_linear_135_268)"/>
<path d="M175.507 139.753C172.992 140.254 170.237 141.46 167.527 143.246C164.816 145.033 162.249 147.335 160.088 149.916C157.928 152.496 156.253 155.262 155.236 157.927C154.219 160.593 153.897 163.062 154.304 165.079L154.616 166.648C154.228 164.724 155.53 160.469 156.5 157.927C157.47 155.386 158.94 152.961 161 150.5C163.06 148.039 165.416 145.703 168 144C170.584 142.297 174.855 139.846 177.253 139.368L175.507 139.753Z" fill="white"/>
<path d="M147.008 181.2L163.5 181.34L168.201 165.493L173 181.34L183.255 181.327L187.5 194.498L191 181.34L197 181.34L201.5 164L206 181.227L221 181.227L225.447 191.512L230 181.227L250.881 181.234" stroke="white" stroke-width="4"/>
<mask id="mask0_135_268" style="mask-type:alpha" maskUnits="userSpaceOnUse" x="0" y="0" width="992" height="270">
<path d="M1.2 148.9C1.2 134.3 5.6 123 14.4 115C23.4 106.8 35.7 102.7 51.3 102.7C66.9 102.7 82.7 104.7 98.7 108.7L93.6 150.4C73.2 145.8 59.5 143.5 52.5 143.5C48.3 143.5 46.2 145.2 46.2 148.6C46.2 150.8 48.5 152.8 53.1 154.6C69.1 160.4 81.1 167 89.1 174.4C97.3 181.8 101.4 192.9 101.4 207.7C101.4 222.5 97.6 233.8 90 241.6C82.4 249.2 70.7 253 54.9 253C39.3 253 23.7 251 8.1 247L11.4 206.5C31.4 211.9 44.3 214.6 50.1 214.6C56.1 214.6 59.1 213.2 59.1 210.4C59.1 207.6 56.9 205.4 52.5 203.8C34.7 197 21.7 189.8 13.5 182.2C5.3 174.4 1.2 163.3 1.2 148.9ZM300.504 217V57.7H350.004V201.1C350.004 204.5 350.704 206.9 352.104 208.3C353.704 209.7 356.404 210.4 360.204 210.4L356.304 253H339.804C326.604 253 316.704 250.3 310.104 244.9C303.704 239.3 300.504 230 300.504 217ZM406.223 253C382.423 253 370.523 239.8 370.523 213.4V106.3H421.523V201.1C421.523 206.1 423.723 208.6 428.123 208.6C433.723 208.6 438.423 207.2 442.223 204.4V106.3H492.623V249.4H444.923V238.9H443.723C432.723 248.3 420.223 253 406.223 253Z" fill="url(#paint2_linear_135_268)"/>
<path d="M632.363 116.8C643.363 107.4 655.463 102.7 668.663 102.7C681.863 102.7 691.063 105.8 696.263 112C701.663 118 704.363 127.1 704.363 139.3V250H653.363V156.4C653.363 151.4 651.163 148.9 646.763 148.9C641.163 148.9 636.463 150.3 632.663 153.1V250H581.663V156.4C581.663 151.4 579.463 148.9 575.063 148.9C569.463 148.9 564.763 150.3 560.963 153.1V250H510.563V106.3H556.463L559.463 116.8H560.663C571.663 107.4 584.663 102.7 599.663 102.7C614.863 102.7 624.763 108.3 629.363 119.5L632.363 116.8ZM782.379 145.6C777.179 145.6 773.779 147.4 772.179 151C770.579 154.4 769.779 159.7 769.779 166.9H795.879V159.7C795.879 150.3 791.379 145.6 782.379 145.6ZM783.579 102.7C804.179 102.7 818.879 107.7 827.679 117.7C836.679 127.5 841.179 141.6 841.179 160C841.179 162.4 840.479 173.2 839.079 192.4H770.679C770.679 207.4 777.579 214.9 791.379 214.9C797.979 214.9 810.879 212.6 830.079 208L834.279 245.2C817.479 250.4 800.679 253 783.879 253C763.279 253 747.479 246.3 736.479 232.9C725.479 219.3 719.979 200.9 719.979 177.7C719.979 127.7 741.179 102.7 783.579 102.7ZM982.294 251.8L962.194 253C946.794 253 937.394 247.9 933.994 237.7H932.494C925.894 247.9 915.794 253 902.194 253C884.194 253 871.494 246.7 864.094 234.1C856.894 221.5 853.294 202.8 853.294 178C853.294 153 857.394 134.2 865.594 121.6C873.794 109 885.594 102.7 900.994 102.7C911.594 102.7 919.794 105.2 925.594 110.2V57.7H975.694V205.9C975.694 209.7 976.494 212.3 978.094 213.7C979.694 214.9 982.594 215.5 986.794 215.5L982.294 251.8ZM914.194 145C909.994 145 907.194 147.6 905.794 152.8C904.394 157.8 903.694 165.1 903.694 174.7C903.694 184.1 903.794 190.5 903.994 193.9C904.194 197.3 904.594 200.8 905.194 204.4C905.994 207.8 907.094 210.2 908.494 211.6C910.094 212.8 912.594 213.4 915.994 213.4C919.594 213.4 923.294 212.5 927.094 210.7V148.6C922.894 146.2 918.594 145 914.194 145Z" fill="#260062"/>
</mask>
<g mask="url(#mask0_135_268)">
<ellipse cx="307" cy="233" rx="61" ry="98" fill="#260062"/>
<rect x="507" y="46" width="485" height="272" fill="#260062"/>
<ellipse cx="74" cy="152" rx="100" ry="98" fill="#A20000"/>
<ellipse cx="433" cy="197" rx="66" ry="138" fill="#260062"/>
<path d="M362.602 54.819C359.594 89.7421 361.686 121.654 368.652 147.115C375.619 172.577 399.477 189.011 414.417 197.695C429.357 206.379 433.137 204.122 452.353 194.38C470.974 183.791 490.854 166.038 507.805 139.22L481.172 58.9057C474.559 69.3687 467.225 77.0812 459.96 81.2121C452.695 85.3431 445.775 85.7357 439.947 82.3477C434.118 78.9597 429.601 71.9195 426.883 61.986C424.165 52.0525 423.349 39.6024 424.523 25.9774L362.602 54.819Z" fill="#57004C"/>
<path d="M372.774 72.8227C370.921 101.006 373.56 126.875 380.407 147.642C387.253 168.41 408.998 182.279 422.576 189.664C436.155 197.049 439.483 195.314 456.445 187.894C472.854 179.774 490.218 165.889 504.744 144.598L487.5 72.8227C481.833 81.129 466.935 93.3486 460.533 96.5162C454.131 99.6838 447.948 99.8352 442.651 96.954C437.353 94.0728 433.142 88.2682 430.471 80.166C427.8 72.0639 426.77 61.9712 427.493 50.9759L372.774 72.8227Z" fill="#980000"/>
<path d="M123.863 224.725C110.14 208.132 94.1597 193.744 77.0435 182.571C59.9274 171.398 42.09 163.71 24.7828 160.048C7.47558 156.385 -8.88204 156.836 -23.1423 161.37C-37.4025 165.903 -49.2199 174.408 -57.7653 186.289L47.9572 287.499L123.863 224.725Z" fill="#5F0048"/>
<path d="M99 257.499C99 244.826 96.4522 232.278 91.5021 220.57C86.552 208.862 79.2966 198.224 70.15 189.263C61.0034 180.302 50.1449 173.194 38.1943 168.345C26.2437 163.495 13.4352 160.999 0.499996 160.999L0.5 257.499H99Z" fill="#260062"/>
<path d="M285.093 127.444C285.958 135.061 288.447 142.435 292.4 149.09C296.352 155.744 301.68 161.529 308.038 166.072C314.396 170.614 321.642 173.811 329.307 175.457C336.972 177.103 344.884 177.16 352.532 175.624L340.635 122.092L285.093 127.444Z" fill="#57004C"/>
<path d="M296.134 96.7734C296.094 109.255 297.978 121.112 301.664 131.577C305.349 142.042 310.755 150.882 317.53 157.522C324.304 164.163 332.298 168.457 340.992 170.127C349.685 171.796 358.886 170.804 367.997 167.213L361.505 80.2898L296.134 96.7734Z" fill="#980000"/>
</g>
<defs>
<linearGradient id="paint0_linear_135_268" x1="122.5" y1="145.5" x2="258.5" y2="219.5" gradientUnits="userSpaceOnUse">
<stop stop-color="#FF0000"/>
<stop offset="1" stop-color="#260062"/>
</linearGradient>
<linearGradient id="paint1_linear_135_268" x1="133" y1="143.5" x2="258.5" y2="184" gradientUnits="userSpaceOnUse">
<stop stop-color="#FF0000"/>
<stop offset="1" stop-color="#020073"/>
</linearGradient>
<linearGradient id="paint2_linear_135_268" x1="-30.0606" y1="190" x2="455.556" y2="201.282" gradientUnits="userSpaceOnUse">
<stop stop-color="#730000"/>
<stop offset="0.447917" stop-color="#FF0000"/>
<stop offset="1" stop-color="#730000"/>
</linearGradient>
</defs>
</svg>
