<svg width="2976" height="810" viewBox="0 0 2976 810" fill="none" xmlns="http://www.w3.org/2000/svg">
<path d="M822 534C822 658.263 721.263 759 597 759C472.737 759 372 658.263 372 534C372 409.737 472.737 309 597 309C721.263 309 822 409.737 822 534Z" stroke="url(#paint0_linear_140_164)" stroke-width="50"/>
<path fill-rule="evenodd" clip-rule="evenodd" d="M597 415.443C611.538 407.043 628.101 402.357 645.192 402.021C670.971 401.508 695.949 410.928 714.894 428.307C733.839 445.683 745.281 469.671 746.82 495.24C748.302 519.825 740.523 544.041 725.058 563.199L725.181 563.307C719.106 569.973 708.786 582.546 696.51 597.504C660.3 641.625 607.056 706.5 595.365 701.754C579.708 695.397 479.628 576.402 469.029 563.307C458.43 550.215 451.356 534.66 448.467 518.106C445.578 501.552 446.97 484.539 452.514 468.666C458.055 452.793 467.568 438.579 480.156 427.356C492.741 416.136 507.993 408.276 524.475 404.517C540.96 400.755 558.132 401.217 574.386 405.858C582.324 408.123 589.917 411.351 597 415.443Z" fill="url(#paint1_linear_140_164)"/>
<path d="M526.521 419.259C518.976 420.762 510.711 424.38 502.581 429.738C494.448 435.099 486.747 442.005 480.264 449.748C473.784 457.488 468.759 465.786 465.708 473.781C462.657 481.779 461.691 489.186 462.912 495.237L463.848 499.944C462.684 494.172 466.59 481.407 469.5 473.781C472.41 466.158 476.82 458.883 483 451.5C489.18 444.117 496.248 437.109 504 432C511.752 426.891 524.565 419.538 531.759 418.104L526.521 419.259Z" fill="white"/>
<path d="M441.024 543.6L490.5 544.02L504.603 496.479L519 544.02L549.765 543.981L562.5 583.494L573 544.02H591L604.5 492L618 543.681H663L676.341 574.536L690 543.681L752.643 543.702" stroke="white" stroke-width="10"/>
<mask id="mask0_140_164" style="mask-type:alpha" maskUnits="userSpaceOnUse" x="3" y="173" width="2958" height="586">
<path d="M3.59998 446.7C3.59998 402.9 16.8 369 43.2 345C70.2 320.4 107.1 308.1 153.9 308.1C200.7 308.1 248.1 314.1 296.1 326.1L280.8 451.2C219.6 437.4 178.5 430.5 157.5 430.5C144.9 430.5 138.6 435.6 138.6 445.8C138.6 452.4 145.5 458.4 159.3 463.8C207.3 481.2 243.3 501 267.3 523.2C291.9 545.4 304.2 578.7 304.2 623.1C304.2 667.5 292.8 701.4 270 724.8C247.2 747.6 212.1 759 164.7 759C117.9 759 71.1 753 24.3 741L34.2 619.5C94.2 635.7 132.9 643.8 150.3 643.8C168.3 643.8 177.3 639.6 177.3 631.2C177.3 622.8 170.7 616.2 157.5 611.4C104.1 591 65.1 569.4 40.5 546.6C15.9 523.2 3.59998 489.9 3.59998 446.7ZM901.512 651V173.1H1050.01V603.3C1050.01 613.5 1052.11 620.7 1056.31 624.9C1061.11 629.1 1069.21 631.2 1080.61 631.2L1068.91 759H1019.41C979.812 759 950.112 750.9 930.312 734.7C911.112 717.9 901.512 690 901.512 651ZM1218.67 759C1147.27 759 1111.57 719.4 1111.57 640.2V318.9H1264.57V603.3C1264.57 618.3 1271.17 625.8 1284.37 625.8C1301.17 625.8 1315.27 621.6 1326.67 613.2V318.9H1477.87V748.2H1334.77V716.7H1331.17C1298.17 744.9 1260.67 759 1218.67 759Z" fill="url(#paint2_linear_140_164)"/>
<path d="M1897.09 350.4C1930.09 322.2 1966.39 308.1 2005.99 308.1C2045.59 308.1 2073.19 317.4 2088.79 336C2104.99 354 2113.09 381.3 2113.09 417.9V750H1960.09V469.2C1960.09 454.2 1953.49 446.7 1940.29 446.7C1923.49 446.7 1909.39 450.9 1897.99 459.3V750H1744.99V469.2C1744.99 454.2 1738.39 446.7 1725.19 446.7C1708.39 446.7 1694.29 450.9 1682.89 459.3V750H1531.69V318.9H1669.39L1678.39 350.4H1681.99C1714.99 322.2 1753.99 308.1 1798.99 308.1C1844.59 308.1 1874.29 324.9 1888.09 358.5L1897.09 350.4ZM2347.14 436.8C2331.54 436.8 2321.34 442.2 2316.54 453C2311.74 463.2 2309.34 479.1 2309.34 500.7H2387.64V479.1C2387.64 450.9 2374.14 436.8 2347.14 436.8ZM2350.74 308.1C2412.54 308.1 2456.64 323.1 2483.04 353.1C2510.04 382.5 2523.54 424.8 2523.54 480C2523.54 487.2 2521.44 519.6 2517.24 577.2H2312.04C2312.04 622.2 2332.74 644.7 2374.14 644.7C2393.94 644.7 2432.64 637.8 2490.24 624L2502.84 735.6C2452.44 751.2 2402.04 759 2351.64 759C2289.84 759 2242.44 738.9 2209.44 698.7C2176.44 657.9 2159.94 602.7 2159.94 533.1C2159.94 383.1 2223.54 308.1 2350.74 308.1ZM2946.88 755.4L2886.58 759C2840.38 759 2812.18 743.7 2801.98 713.1H2797.48C2777.68 743.7 2747.38 759 2706.58 759C2652.58 759 2614.48 740.1 2592.28 702.3C2570.68 664.5 2559.88 608.4 2559.88 534C2559.88 459 2572.18 402.6 2596.78 364.8C2621.38 327 2656.78 308.1 2702.98 308.1C2734.78 308.1 2759.38 315.6 2776.78 330.6V173.1H2927.08V617.7C2927.08 629.1 2929.48 636.9 2934.28 641.1C2939.08 644.7 2947.78 646.5 2960.38 646.5L2946.88 755.4ZM2742.58 435C2729.98 435 2721.58 442.8 2717.38 458.4C2713.18 473.4 2711.08 495.3 2711.08 524.1C2711.08 552.3 2711.38 571.5 2711.98 581.7C2712.58 591.9 2713.78 602.4 2715.58 613.2C2717.98 623.4 2721.28 630.6 2725.48 634.8C2730.28 638.4 2737.78 640.2 2747.98 640.2C2758.78 640.2 2769.88 637.5 2781.28 632.1V445.8C2768.68 438.6 2755.78 435 2742.58 435Z" fill="#260062"/>
</mask>
<g mask="url(#mask0_140_164)">
<path d="M921 993C1022.07 993 1104 861.372 1104 699C1104 536.628 1022.07 405 921 405C819.932 405 738 536.628 738 699C738 861.372 819.932 993 921 993Z" fill="#260062"/>
<path d="M2976 138H1521V954H2976V138Z" fill="#260062"/>
<path d="M222 750C387.685 750 522 618.372 522 456C522 293.628 387.685 162 222 162C56.3146 162 -78 293.628 -78 456C-78 618.372 56.3146 750 222 750Z" fill="#A20000"/>
<path d="M1299 1005C1408.35 1005 1497 819.646 1497 591C1497 362.354 1408.35 177 1299 177C1189.65 177 1101 362.354 1101 591C1101 819.646 1189.65 1005 1299 1005Z" fill="#260062"/>
<path d="M1087.81 164.457C1078.78 269.226 1085.06 364.962 1105.96 441.345C1126.86 517.731 1198.43 567.033 1243.25 593.085C1288.07 619.137 1299.41 612.366 1357.06 583.14C1412.92 551.373 1472.56 498.114 1523.41 417.66L1443.52 176.717C1423.68 208.106 1401.67 231.244 1379.88 243.636C1358.08 256.029 1337.32 257.207 1319.84 247.043C1302.35 236.879 1288.8 215.759 1280.65 185.958C1272.49 156.158 1270.05 118.807 1273.57 77.9323L1087.81 164.457Z" fill="#57004C"/>
<path d="M1118.32 218.468C1112.76 303.018 1120.68 380.625 1141.22 442.926C1161.76 505.23 1226.99 546.837 1267.73 568.992C1308.46 591.147 1318.45 585.942 1369.33 563.682C1418.56 539.322 1470.65 497.667 1514.23 433.794L1462.5 218.468C1445.5 243.387 1400.8 280.046 1381.6 289.549C1362.39 299.051 1343.84 299.506 1327.95 290.862C1312.06 282.218 1299.43 264.805 1291.41 240.498C1283.4 216.192 1280.31 185.914 1282.48 152.928L1118.32 218.468Z" fill="#980000"/>
<path d="M371.589 674.175C330.42 624.396 282.479 581.232 231.131 547.713C179.782 514.194 126.27 491.13 74.3484 480.144C22.4268 469.155 -26.6461 470.508 -69.4269 484.11C-112.207 497.709 -147.66 523.224 -173.296 558.867L143.872 862.497L371.589 674.175Z" fill="#5F0048"/>
<path d="M297 772.497C297 734.478 289.357 696.834 274.506 661.71C259.656 626.586 237.89 594.672 210.45 567.789C183.01 540.906 150.435 519.582 114.583 505.035C78.7311 490.485 40.3056 482.997 1.5 482.997L1.50001 772.497H297Z" fill="#260062"/>
<path d="M855.279 382.332C857.874 405.183 865.341 427.305 877.2 447.27C889.056 467.232 905.04 484.587 924.114 498.216C943.188 511.842 964.926 521.433 987.921 526.371C1010.92 531.309 1034.65 531.48 1057.6 526.872L1021.9 366.276L855.279 382.332Z" fill="#57004C"/>
<path d="M888.402 290.32C888.282 327.765 893.934 363.336 904.992 394.731C916.047 426.126 932.265 452.646 952.59 472.566C972.912 492.489 996.894 505.371 1022.98 510.381C1049.06 515.388 1076.66 512.412 1103.99 501.639L1084.52 240.869L888.402 290.32Z" fill="#980000"/>
</g>
<defs>
<linearGradient id="paint0_linear_140_164" x1="367.5" y1="436.5" x2="775.5" y2="658.5" gradientUnits="userSpaceOnUse">
<stop stop-color="#FF0000"/>
<stop offset="1" stop-color="#260062"/>
</linearGradient>
<linearGradient id="paint1_linear_140_164" x1="399" y1="430.5" x2="775.5" y2="552" gradientUnits="userSpaceOnUse">
<stop stop-color="#FF0000"/>
<stop offset="1" stop-color="#020073"/>
</linearGradient>
<linearGradient id="paint2_linear_140_164" x1="-90.1818" y1="570" x2="1366.67" y2="603.846" gradientUnits="userSpaceOnUse">
<stop stop-color="#730000"/>
<stop offset="0.447917" stop-color="#FF0000"/>
<stop offset="1" stop-color="#730000"/>
</linearGradient>
</defs>
</svg>
