<svg width="170" height="170" viewBox="0 0 170 170" fill="none" xmlns="http://www.w3.org/2000/svg">
<path d="M160 85C160 126.421 126.421 160 85 160C43.5786 160 10 126.421 10 85C10 43.5786 43.5786 10 85 10C126.421 10 160 43.5786 160 85Z" stroke="url(#paint0_linear_135_96)" stroke-width="20"/>
<path fill-rule="evenodd" clip-rule="evenodd" d="M84.9999 45.4809C89.8455 42.6814 95.3669 41.1194 101.064 41.0066C109.657 40.8364 117.983 43.9764 124.298 49.7688C130.613 55.5611 134.427 63.5565 134.94 72.08C135.434 80.2749 132.841 88.3467 127.686 94.7334L127.727 94.7695C125.702 96.9909 122.262 101.182 118.17 106.168C106.1 120.875 88.3516 142.5 84.4546 140.918C79.2363 138.799 45.8756 99.134 42.343 94.7695C38.8105 90.405 36.452 85.2203 35.4891 79.7021C34.5261 74.184 34.9901 68.5132 36.8377 63.222C38.6853 57.9308 41.8557 53.1927 46.0515 49.4525C50.2474 45.7122 55.331 43.0923 60.8252 41.8387C66.3195 40.5851 72.0443 40.739 77.4623 42.2858C80.1084 43.0412 82.6389 44.1167 84.9999 45.4809Z" fill="url(#paint1_linear_135_96)"/>
<path d="M61.5067 46.7534C58.9917 47.2544 56.237 48.4602 53.5267 50.2465C50.8165 52.0328 48.2487 54.3349 46.0882 56.9155C43.9277 59.4961 42.2527 62.2617 41.2359 64.9272C40.2191 67.5927 39.8972 70.0615 40.3036 72.0792L40.6156 73.6483C40.2282 71.7244 41.5305 67.4688 42.5 64.9272C43.4695 62.3856 44.9399 59.9606 47 57.5C49.0601 55.0394 51.4157 52.7033 54 51C56.5843 49.2967 60.8553 46.8457 63.2534 46.368L61.5067 46.7534Z" fill="white"/>
<path d="M33.0082 88.1997L49.5 88.3397L54.2014 72.4933L59 88.3397L69.2552 88.3273L73.5002 101.498L76.9999 88.3397L83.0002 88.3397L87.5 70.9996L92.0002 88.2272L107 88.2272L111.447 98.5118L116 88.2272L136.881 88.2338" stroke="white" stroke-width="4"/>
<defs>
<linearGradient id="paint0_linear_135_96" x1="8.5" y1="52.5" x2="144.5" y2="126.5" gradientUnits="userSpaceOnUse">
<stop stop-color="#FF0000"/>
<stop offset="1" stop-color="#260062"/>
</linearGradient>
<linearGradient id="paint1_linear_135_96" x1="19" y1="50.5" x2="144.5" y2="91" gradientUnits="userSpaceOnUse">
<stop stop-color="#FF0000"/>
<stop offset="1" stop-color="#020073"/>
</linearGradient>
</defs>
</svg>
